<svg width="16" height="16" viewBox="0 0 16 16" fill="none" xmlns="http://www.w3.org/2000/svg">
<path d="M-0.00125313 2C-0.00125313 3.10457 0.894177 4 1.99875 4C3.10332 4 3.99875 3.10457 3.99875 2C3.99875 0.895431 3.10332 0 1.99875 0C0.894177 0 -0.00125313 0.895431 -0.00125313 2ZM5.99875 14C5.99875 15.1046 6.89418 16 7.99875 16C9.10332 16 9.99875 15.1046 9.99875 14C9.99875 12.8954 9.10332 12 7.99875 12C6.89418 12 5.99875 12.8954 5.99875 14ZM-0.00125313 14C-0.00125313 15.1046 0.894177 16 1.99875 16C3.10332 16 3.99875 15.1046 3.99875 14C3.99875 12.8954 3.10332 12 1.99875 12C0.894177 12 -0.00125313 12.8954 -0.00125313 14ZM-0.00125313 8C-0.00125313 9.10457 0.894177 10 1.99875 10C3.10332 10 3.99875 9.10457 3.99875 8C3.99875 6.89543 3.10332 6 1.99875 6C0.894177 6 -0.00125313 6.89543 -0.00125313 8ZM5.99875 8C5.99875 9.10457 6.89418 10 7.99875 10C9.10332 10 9.99875 9.10457 9.99875 8C9.99875 6.89543 9.10332 6 7.99875 6C6.89418 6 5.99875 6.89543 5.99875 8ZM13.9987 0C12.8942 0 11.9987 0.895431 11.9987 2C11.9987 3.10457 12.8942 4 13.9987 4C15.1033 4 15.9987 3.10457 15.9987 2C15.9987 0.895431 15.1033 0 13.9987 0ZM5.99875 2C5.99875 3.10457 6.89418 4 7.99875 4C9.10332 4 9.99875 3.10457 9.99875 2C9.99875 0.895431 9.10332 0 7.99875 0C6.89418 0 5.99875 0.895431 5.99875 2ZM11.9987 8C11.9987 9.10457 12.8942 10 13.9987 10C15.1033 10 15.9987 9.10457 15.9987 8C15.9987 6.89543 15.1033 6 13.9987 6C12.8942 6 11.9987 6.89543 11.9987 8ZM11.9987 14C11.9987 15.1046 12.8942 16 13.9987 16C15.1033 16 15.9987 15.1046 15.9987 14C15.9987 12.8954 15.1033 12 13.9987 12C12.8942 12 11.9987 12.8954 11.9987 14Z" fill="white"/>
</svg>
